<?xml version="1.0" encoding="utf-8"?>
<!-- Generator: Adobe Illustrator 22.1.0, SVG Export Plug-In . SVG Version: 6.00 Build 0)  -->
<svg version="1.1" id="Layer_1" xmlns="http://www.w3.org/2000/svg" xmlns:xlink="http://www.w3.org/1999/xlink" x="0px" y="0px"
	 viewBox="0 0 123.8 119.9" style="enable-background:new 0 0 123.8 119.9;" xml:space="preserve">
<style type="text/css">
	.st0{fill:#FFE245;}
</style>
<g>
	<path class="st0" d="M89.7,115.2c-1,0-2.1-0.4-3.3-1.2l-19.6-12.5c-2.8-1.8-7-2.9-11.2-2.9c-2.8,0-5.3,0.5-7.4,1.3L26.7,109
		c-1.1,0.4-2,0.7-2.8,0.7c-1,0-1.7-0.3-2.2-0.9c-0.7-0.9-0.8-2.5-0.3-4.4l5.8-22.5c1.5-5.6-0.5-13.8-4.3-18.1L7.7,46.1
		c-1.5-1.7-2-3.3-1.5-4.5c0.5-1.2,2-1.9,4.3-2l23.2-1.4c5.8-0.3,12.9-4.7,15.9-9.7l12-19.9c1.1-1.8,2.4-2.8,3.6-2.8
		c1.3,0,2.6,1.3,3.4,3.4l8.5,21.7c2.1,5.4,8.5,10.9,14.1,12.2l22.7,5.3c2.2,0.5,3.6,1.5,3.9,2.7c0.3,1.2-0.5,2.7-2.3,4.2L97.6,70
		c-4.5,3.7-7.7,11.4-7.2,17.2l2,23.2c0.2,1.8-0.2,3.3-0.9,4.1C91,115,90.4,115.2,89.7,115.2z"/>
	<path d="M65.3,6.8c0.9,0,1.8,1.1,2.5,2.8l8.5,21.7C78.5,37,85,42.6,91.1,44l22.7,5.3c1.7,0.4,2.9,1.2,3.1,2c0.2,0.8-0.5,2-1.9,3.2
		L97,69.2c-4.8,3.9-8.1,11.9-7.6,18l2,23.2c0.1,1.5-0.1,2.8-0.6,3.4c-0.2,0.2-0.4,0.4-1.1,0.4c-0.8,0-1.8-0.4-2.8-1l-19.6-12.5
		c-3-1.9-7.3-3.1-11.7-3.1c-2.9,0-5.6,0.5-7.8,1.4l-21.4,9.1c-0.9,0.4-1.8,0.6-2.5,0.6c-1,0-1.3-0.4-1.4-0.5
		c-0.5-0.6-0.5-1.9-0.1-3.5l5.8-22.5c1.6-6-0.4-14.4-4.5-19L8.5,45.5c-1.2-1.3-1.7-2.7-1.4-3.4c0.3-0.8,1.6-1.3,3.4-1.4l23.2-1.4
		c6.2-0.4,13.5-4.8,16.7-10.1l12-19.9C63.4,7.7,64.4,6.8,65.3,6.8 M65.3,4.8c-1.5,0-3.1,1.1-4.5,3.3l-12,19.9
		c-2.8,4.7-9.7,8.8-15.1,9.2l-23.2,1.4c-5.5,0.3-7,4-3.4,8.2l15.2,17.6c3.6,4.2,5.4,11.9,4,17.2l-5.8,22.5c-1.1,4.1,0.4,6.5,3.5,6.5
		c0.9,0,2-0.2,3.2-0.8l21.4-9.1c2-0.8,4.5-1.3,7-1.3c3.9,0,7.9,1,10.7,2.7l19.6,12.5c1.4,0.9,2.8,1.4,3.9,1.4c2.5,0,4-2.2,3.7-5.9
		l-2-23.2c-0.5-5.5,2.6-12.8,6.9-16.3l18-14.8c4.2-3.5,3.3-7.4-2-8.6l-22.7-5.3c-5.4-1.2-11.4-6.5-13.4-11.6L69.6,8.9
		C68.6,6.2,67,4.8,65.3,4.8L65.3,4.8z"/>
</g>
</svg>
